# xmcd
#
# Track frame offsets: 
#        150
#        29552
#        46970
#        69427
#        93030
#        112547
#        133432
#        158815
#        181955
#        204485
#        228150
#        238785
#        253250
#        266437
#        278177
#        314222
#
# Disc length: 4595 seconds
#
# Revision: 1
# Processed by: cddbd v1.5.2PL0 Copyright (c) Steve Scherf et al.
# Submitted via: ExactAudioCopy v0.95b4
#
DISCID=e211f110
DTITLE=Earl Hooker - Grand Master of the Blues Guitar
DYEAR=1989
DGENRE=Blues
TTITLE0=Anna Lee
TTITLE1=Off The Hook
TTITLE2=Love Ain't A Plaything
TTITLE3=You Don't Want Me
TTITLE4=Two Bugs And A Roach
TTITLE5=Wah Wah Blues
TTITLE6=You Don't Love Me
TTITLE7=Earl Hooker Blues
TTITLE8=The Hook
TTITLE9=New Sweet Black Angel
TTITLE10=Going On Down The Line
TTITLE11=Original Sweet Black Angel
TTITLE12=Guitar Rag
TTITLE13=Earl's Boogie Woogie
TTITLE14=Improvisations On Dust My Broom
TTITLE15=Improvisations On Frosty
EXTD=
EXTT0=
EXTT1=
EXTT2=
EXTT3=
EXTT4=
EXTT5=
EXTT6=
EXTT7=
EXTT8=
EXTT9=
EXTT10=
EXTT11=
EXTT12=
EXTT13=
EXTT14=
EXTT15=
PLAYORDER=
